<?xml version="1.0" encoding="UTF-8" standalone="no"?>
<svg
   xmlns:dc="http://purl.org/dc/elements/1.1/"
   xmlns:cc="http://creativecommons.org/ns#"
   xmlns:rdf="http://www.w3.org/1999/02/22-rdf-syntax-ns#"
   xmlns:svg="http://www.w3.org/2000/svg"
   xmlns="http://www.w3.org/2000/svg"
   viewBox="0 0 792 792"
   height="792"
   width="792"
   xml:space="preserve"
   id="svg2"
   version="1.1"><metadata
     id="metadata8"><rdf:RDF><cc:Work
         rdf:about=""><dc:format>image/svg+xml</dc:format><dc:type
           rdf:resource="http://purl.org/dc/dcmitype/StillImage" /></cc:Work></rdf:RDF></metadata><defs
     id="defs6" /><g
     transform="matrix(1.3333333,0,0,-1.3333333,0,792)"
     id="g10"><g
       transform="scale(0.1)"
       id="g12"><path
         id="path14"
         style="fill:#231f20;fill-opacity:1;fill-rule:nonzero;stroke:none"
         d="m 1355.39,3849.79 c -9.22,5.32 -20.59,5.32 -29.81,0 L 581.84,3420.41 c -9.223,-5.33 -14.906,-15.18 -14.906,-25.83 v -805.32 c 0,-11.98 7.175,-22.8 18.226,-27.47 11.047,-4.66 23.805,-2.25 32.395,6.11 l 205.136,199.83 24.02,137.23 121.531,-83.89 c 8.051,10.32 25.442,34.55 35.898,63.62 2.16,6.03 2.21,12.61 0.11,18.65 -6.938,19.96 -13.641,43.44 -18.605,70.23 -2.5,13.5 -1.059,48.48 1.835,87.01 l -158.578,21.98 c -2.933,0.41 -5.101,2.91 -5.101,5.86 v 10.86 c 0,15.45 11.293,28.59 26.582,30.92 l 119.465,18.17 c 7.254,1.1 13.257,6.15 15.59,13.1 l 102.522,304.51 c 5.2,15.44 19.18,26.23 35.43,27.33 l 128.77,8.75 c 12.96,0.87 25.94,-0.97 38.14,-5.4 l 88.6,-32.19 c 17.5,-6.37 35.92,-9.87 54.53,-10.36 l 148.37,-3.97 c 9.77,-0.27 18.73,-5.48 23.78,-13.85 l 25.23,-41.77 c 5.1,-8.46 8.55,-17.83 10.13,-27.57 l 52.8,-324.74 c 0.7,-4.28 3.7,-7.82 7.81,-9.2 l 150.36,-50.54 c 10.5,-3.53 19.08,-11.26 23.7,-21.32 l 9.23,-20.16 c 0.49,-1.05 0.37,-2.27 -0.32,-3.18 -0.69,-0.92 -1.81,-1.4 -2.95,-1.25 l -210.3,29.18 c -0.28,-20.1 -1.3,-35.53 -3.14,-41.95 -4.3,-15.04 -11.46,-27.34 -14.46,-32.15 -0.89,-1.41 -1.1,-3.1 -0.58,-4.69 l 41.5,-127.79 c 0.69,-2.13 0.1,-4.43 -1.51,-5.95 l -25.87,-24.58 c -3.7,-3.5 -8.7,-5.31 -13.82,-4.96 l -38.56,2.72 c -1.49,0.08 -2.81,-0.94 -3.08,-2.39 -1.77,-9.48 -7.52,-42.78 -3.37,-58.46 0.68,-2.55 -0.56,-5.24 -2.97,-6.36 -7.81,-3.64 -15.31,-6.52 -18.21,-7.61 -0.72,-0.27 -1.1,-1.03 -0.89,-1.78 l 9.3,-32 c 0.34,-1.21 -0.31,-2.47 -1.49,-2.86 l -20.59,-6.86 c -0.79,-0.28 -1.37,-0.96 -1.47,-1.79 l -8.62,-72.16 c -0.22,-1.91 -1.44,-3.57 -3.2,-4.38 l -61.86,-28.3 c -1.89,-0.87 -4.01,-1.13 -6.04,-0.68 -10.75,2.32 -48.04,12.73 -112.37,54.86 -13.48,8.83 -31.02,8.46 -44.13,-0.9 -7.41,-5.31 -15.59,-11 -22.96,-16.06 l 169.59,-119.96 -179.52,-7.93 c -1.28,0.04 -2.53,-0.46 -3.42,-1.4 -0.89,-0.95 -1.32,-2.23 -1.19,-3.52 l 0.21,-2 c 0.39,-3.72 -0.81,-7.43 -3.31,-10.24 -2.52,-2.77 -6.08,-4.35 -9.83,-4.35 -1.1,0 -2.13,-0.54 -2.78,-1.44 -0.65,-0.89 -0.82,-2.05 -0.48,-3.08 l 1.7,-5.07 c 1.26,-3.79 0.91,-7.88 -0.95,-11.37 -1.87,-3.49 -5.07,-6.07 -8.88,-7.13 l -19.04,-5.27 c -4.3,-1.21 -7.08,-5.38 -6.51,-9.8 l 80.41,-239.56 c 2.85,-8.47 9.35,-15.23 17.72,-18.4 8.37,-3.16 17.71,-2.4 25.46,2.07 l 727.07,419.78 c 9.22,5.32 14.9,15.17 14.9,25.82 v 858.77 c 0,10.65 -5.68,20.5 -14.9,25.83 l -743.74,429.38" /><path
         id="path16"
         style="fill:#231f20;fill-opacity:1;fill-rule:nonzero;stroke:none"
         d="m 2399.47,2855.59 c 0,0 66,-60.28 139.34,-60.28 29.32,0 61.09,11.41 61.09,46.45 0,69.26 -262.36,66.79 -262.34,246.06 0,107.57 90.42,178.44 206.12,178.44 125.52,0 187.41,-66 187.41,-66 l -60.28,-116.52 c 0,0 -58.68,51.34 -128.74,51.34 -29.32,0 -61.93,-13.02 -61.93,-45.63 0,-73.32 262.37,-60.28 262.38,-244.43 -0.01,-96.95 -74.15,-180.91 -205.34,-180.91 -136.9,0 -212.68,83.12 -212.68,83.12 l 74.97,108.36" /><path
         id="path18"
         style="fill:#231f20;fill-opacity:1;fill-rule:nonzero;stroke:none"
         d="m 2950.23,3256.48 365.02,0.02 0.01,-122.23 h -222.45 v -105.94 h 177.63 V 2906.1 h -177.63 l -0.02,-109.99 h 233.88 v -122.23 h -376.45 l 0.01,582.6" /><path
         id="path20"
         style="fill:#231f20;fill-opacity:1;fill-rule:nonzero;stroke:none"
         d="m 3800.2,3266.26 c 144.21,0 218.34,-82.28 218.34,-82.28 l -65.97,-107.57 c 0,0 -65.22,59.46 -145.88,59.46 -111.62,0 -164.59,-82.29 -164.59,-166.19 0,-86.38 57.07,-175.17 164.59,-175.17 88.02,0 154.84,71.68 154.84,71.68 l 73.32,-104.29 c 0,0 -82.28,-97.79 -234.65,-97.79 -182.54,0 -305.6,129.58 -305.6,302.32 0,169.44 130.39,299.83 305.6,299.83" /><path
         id="path22"
         style="fill:#231f20;fill-opacity:1;fill-rule:nonzero;stroke:none"
         d="m 4221.64,3256.48 142.6,0.02 v -224.91 h 58.67 l 120.62,224.91 h 153.17 l -157.25,-278.68 v -1.63 l 166.23,-302.31 h -159.73 l -123.04,236.31 h -58.67 v -236.31 h -142.6 v 582.6" /><path
         id="path24"
         style="fill:#231f20;fill-opacity:1;fill-rule:nonzero;stroke:none"
         d="m 5138.37,3266.26 c 144.21,0 218.38,-82.28 218.38,-82.28 l -66.01,-107.57 c 0,0 -65.17,59.47 -145.86,59.46 -111.62,0 -164.62,-82.29 -164.62,-166.19 0,-86.38 57.06,-175.17 164.64,-175.17 87.97,0 154.81,71.68 154.81,71.68 l 73.36,-104.29 c 0,0 -82.33,-97.79 -234.7,-97.8 -182.53,0 -305.54,129.59 -305.54,302.33 0,169.44 130.34,299.83 305.54,299.83" /></g></g></svg>